<?xml version="1.0" encoding="utf-8"?>
<!-- Generator: Adobe Illustrator 22.1.0, SVG Export Plug-In . SVG Version: 6.00 Build 0)  -->
<svg version="1.1" baseProfile="basic" id="Layer_1"
	 xmlns="http://www.w3.org/2000/svg" xmlns:xlink="http://www.w3.org/1999/xlink" x="0px" y="0px" width="506.7px" height="81.4px"
	 viewBox="0 0 506.7 81.4" xml:space="preserve">
<style type="text/css">
	.st0{fill:#95a5a6;}
	.st1{fill:#95a5a6;}
</style>
<g>
	<path class="st0" d="M132,47.4c-0.7,0.6-1.5,0.9-2.5,0.9H103c0.4,3.7,1.7,6.6,4.2,8.8s5.4,3.3,8.9,3.3c2.4,0,4.4-0.4,5.9-1.1
		c1.5-0.7,2.8-1.6,4-2.7c0.8-0.5,1.5-0.7,2.2-0.7c0.9,0,1.6,0.3,2.1,0.9c0.6,0.6,0.9,1.3,0.9,2.1c0,1.1-0.5,2-1.5,2.9
		c-1.5,1.5-3.4,2.7-5.8,3.7s-4.9,1.5-7.4,1.5c-4.1,0-7.6-0.9-10.7-2.6c-3.1-1.7-5.5-4.1-7.2-7.1c-1.7-3.1-2.5-6.5-2.5-10.4
		c0-4.2,0.9-7.9,2.6-11.1c1.7-3.2,4-5.6,6.8-7.3c2.8-1.7,5.9-2.6,9.1-2.6c3.2,0,6.2,0.8,9,2.5c2.8,1.7,5.1,3.9,6.8,6.8
		c1.7,2.9,2.6,6.2,2.6,9.8C133.1,46,132.7,46.8,132,47.4z M107.4,35c-2.1,1.6-3.4,4-4.1,7.3h22.2v-0.6c-0.3-2.7-1.4-4.8-3.6-6.5
		c-2.1-1.7-4.6-2.6-7.3-2.6C111.9,32.6,109.4,33.4,107.4,35z"/>
	<path class="st0" d="M172.2,27.8c2.6,1.3,4,2.9,4,4.8c0,0.9-0.3,1.6-0.8,2.3c-0.6,0.7-1.3,1-2.1,1c-0.7,0-1.2-0.1-1.5-0.3
		c-0.4-0.2-0.9-0.5-1.5-1c-0.3-0.3-0.8-0.7-1.4-1.1c-0.6-0.3-1.5-0.6-2.6-0.8c-1.1-0.2-2.1-0.3-3-0.3c-2.6,0-4.9,0.6-6.9,1.8
		c-2,1.2-3.6,2.9-4.7,5c-1.1,2.1-1.7,4.5-1.7,7.1c0,2.7,0.5,5,1.6,7.1c1.1,2.1,2.6,3.8,4.6,5s4.2,1.8,6.7,1.8c2.6,0,4.7-0.4,6.3-1.2
		c0.4-0.2,0.8-0.5,1.4-1c0.5-0.4,0.9-0.7,1.3-0.9c0.4-0.2,0.8-0.3,1.4-0.3c1,0,1.8,0.3,2.4,0.9c0.6,0.6,0.9,1.4,0.9,2.4
		c0,1.1-0.7,2.1-2,3.1c-1.3,1-3.1,1.9-5.3,2.5s-4.6,1-7.2,1c-3.8,0-7.2-0.9-10.1-2.7c-2.9-1.8-5.2-4.2-6.7-7.4
		c-1.6-3.1-2.4-6.6-2.4-10.5c0-3.9,0.8-7.4,2.5-10.5c1.7-3.1,4-5.6,6.9-7.4c3-1.8,6.3-2.7,10.2-2.7C166.3,26,169.6,26.6,172.2,27.8z
		"/>
	<path class="st0" d="M220.5,42.6v20.1c0,1-0.3,1.9-1,2.6c-0.7,0.7-1.5,1.1-2.6,1.1c-1,0-1.8-0.4-2.5-1.1c-0.7-0.7-1-1.6-1-2.6V42.6
		c0-6.5-2.8-9.8-8.3-9.8c-3,0-5.4,0.9-7.4,2.8c-2,1.9-2.9,4.2-2.9,7v20.1c0,1-0.3,1.9-1,2.6c-0.7,0.7-1.5,1.1-2.6,1.1
		s-1.9-0.3-2.6-1c-0.7-0.7-1-1.5-1-2.6V14.2c0-1,0.3-1.9,1-2.6c0.7-0.7,1.5-1.1,2.5-1.1c1.1,0,1.9,0.4,2.6,1.1c0.7,0.7,1,1.6,1,2.6
		v19c1.3-2,3-3.6,5.3-5s4.7-2.1,7.2-2.1C216.1,26.2,220.5,31.7,220.5,42.6z"/>
	<path class="st0" d="M346.5,28.8c2.8,1.7,4.9,4.2,6.5,7.3c1.6,3.1,2.4,6.6,2.4,10.5s-0.8,7.4-2.4,10.5c-1.6,3.1-3.8,5.5-6.5,7.3
		c-2.8,1.8-5.8,2.6-9.1,2.6c-2.6,0-5-0.6-7.3-1.7c-2.3-1.2-4.1-2.6-5.5-4.2v16.7c0,1-0.3,1.9-1,2.6c-0.7,0.7-1.5,1.1-2.6,1.1
		c-1,0-1.8-0.3-2.5-1c-0.7-0.7-1-1.5-1-2.6V30.4c0-1.1,0.3-1.9,1-2.6c0.7-0.7,1.5-1.1,2.6-1.1s1.9,0.4,2.6,1.1c0.7,0.7,1,1.6,1,2.6
		v2.2c1.2-1.8,3-3.3,5.3-4.5c2.3-1.3,4.8-1.9,7.4-1.9C340.7,26.2,343.7,27.1,346.5,28.8z M342.7,58.6c1.9-1.2,3.3-2.8,4.3-4.9
		c1-2.1,1.5-4.4,1.5-7c0-2.6-0.5-5-1.5-7c-1-2.1-2.5-3.7-4.3-4.9c-1.9-1.2-3.9-1.8-6.2-1.8c-2.4,0-4.5,0.6-6.3,1.8s-3.3,2.8-4.3,4.9
		c-1,2.1-1.5,4.5-1.5,7.1c0,2.6,0.5,5,1.5,7.1c1,2.1,2.5,3.8,4.3,4.9c1.9,1.2,4,1.8,6.3,1.8C338.7,60.4,340.8,59.8,342.7,58.6z"/>
	<path class="st0" d="M374.1,65.3c-0.7,0.7-1.6,1.1-2.6,1.1c-1,0-1.8-0.4-2.5-1.1c-0.7-0.7-1-1.6-1-2.6V14.2c0-1,0.4-1.9,1.1-2.6
		c0.7-0.7,1.6-1.1,2.6-1.1c1,0,1.8,0.4,2.5,1.1c0.7,0.7,1,1.6,1,2.6v48.5C375.2,63.7,374.8,64.6,374.1,65.3z"/>
	<path class="st0" d="M424.2,57.1c-1.8,3.1-4.2,5.5-7.2,7.3c-3,1.8-6.4,2.6-10,2.6c-3.7,0-7-0.9-10-2.6c-3-1.8-5.4-4.2-7.2-7.3
		c-1.8-3.1-2.6-6.6-2.6-10.5s0.9-7.5,2.6-10.6c1.8-3.2,4.2-5.6,7.2-7.4c3-1.8,6.4-2.6,10-2.6c3.7,0,7,0.9,10,2.6
		c3,1.8,5.4,4.2,7.2,7.4c1.8,3.2,2.6,6.7,2.6,10.6S425.9,54,424.2,57.1z M418,39.3c-1.1-2.1-2.7-3.8-4.6-5c-1.9-1.2-4.1-1.8-6.4-1.8
		c-2.4,0-4.5,0.6-6.4,1.8c-1.9,1.2-3.5,2.8-4.6,5c-1.1,2.1-1.7,4.6-1.7,7.3c0,2.7,0.6,5,1.7,7.2c1.1,2.1,2.7,3.8,4.6,4.9
		s4.1,1.8,6.4,1.8c2.4,0,4.5-0.6,6.4-1.8s3.5-2.8,4.6-4.9c1.1-2.1,1.7-4.5,1.7-7.2C419.7,43.9,419.1,41.5,418,39.3z"/>
	<path class="st0" d="M461.9,27c1,0.7,1.4,1.5,1.4,2.5c0,1.2-0.3,2.1-0.9,2.7c-0.6,0.6-1.4,0.9-2.3,0.9c-0.5,0-1.1-0.2-2-0.5
		c-1.1-0.4-1.9-0.5-2.5-0.5c-1.6,0-3.1,0.5-4.6,1.6c-1.5,1.1-2.7,2.6-3.6,4.4c-0.9,1.9-1.4,4-1.4,6.3v18.1c0,1-0.3,1.9-1,2.6
		c-0.7,0.7-1.5,1.1-2.6,1.1s-1.9-0.3-2.6-1c-0.7-0.7-1-1.5-1-2.6V30.5c0-1,0.3-1.9,1-2.6c0.7-0.7,1.5-1.1,2.5-1.1
		c1.1,0,1.9,0.4,2.6,1.1c0.7,0.7,1,1.6,1,2.6v3.8c1.1-2.5,2.8-4.5,5-6c2.2-1.5,4.7-2.3,7.5-2.4C459.8,26,460.9,26.3,461.9,27z"/>
	<path class="st0" d="M505.5,47.4c-0.7,0.6-1.5,0.9-2.5,0.9h-26.5c0.4,3.7,1.7,6.6,4.2,8.8s5.4,3.3,8.9,3.3c2.4,0,4.4-0.4,5.9-1.1
		c1.5-0.7,2.8-1.6,4-2.7c0.8-0.5,1.5-0.7,2.2-0.7c0.9,0,1.6,0.3,2.1,0.9c0.6,0.6,0.9,1.3,0.9,2.1c0,1.1-0.5,2-1.5,2.9
		c-1.5,1.5-3.4,2.7-5.8,3.7s-4.9,1.5-7.4,1.5c-4.1,0-7.6-0.9-10.7-2.6c-3.1-1.7-5.5-4.1-7.2-7.1c-1.7-3.1-2.5-6.5-2.5-10.4
		c0-4.2,0.9-7.9,2.6-11.1c1.7-3.2,4-5.6,6.8-7.3c2.8-1.7,5.9-2.6,9.1-2.6c3.2,0,6.2,0.8,9,2.5c2.8,1.7,5.1,3.9,6.8,6.8
		c1.7,2.9,2.6,6.2,2.6,9.8C506.6,46,506.2,46.8,505.5,47.4z M480.9,35c-2.1,1.6-3.4,4-4.1,7.3h22.2v-0.6c-0.3-2.7-1.4-4.8-3.6-6.5
		c-2.1-1.7-4.6-2.6-7.3-2.6C485.4,32.6,483,33.4,480.9,35z"/>
	<g>
		<polygon class="st0" points="272.8,19.8 253.6,0.7 238.5,15.5 257.7,34.6 238.5,53.8 253.6,68.6 272.8,49.5 287.6,34.6 		"/>
		
			<rect x="281.6" y="4.4" transform="matrix(0.7071 -0.7071 0.7071 0.7071 74.9817 211.0111)" class="st1" width="21.2" height="21.2"/>
		
			<rect x="281.3" y="44" transform="matrix(0.7071 -0.7072 0.7072 0.7071 46.863 222.3999)" class="st1" width="21.2" height="21.2"/>
	</g>
	<polygon class="st0" points="28.9,69.6 53.4,69.6 53.4,38 53.4,13.5 28.9,13.5 0,13.5 0,38 28.9,38 	"/>
	<rect x="59.5" y="13.5" class="st1" width="24.8" height="24.8"/>
</g>
</svg>
