<svg width="86" height="15" viewBox="0 0 86 15" fill="none" xmlns="http://www.w3.org/2000/svg">
<path d="M3.176 6.476H9.242V8.744H3.176V6.476ZM3.392 11.66H10.25V14H0.494V1.4H10.016V3.74H3.392V11.66ZM11.0427 14L15.3807 8.312L15.3267 9.86L11.1687 4.316H14.3187L16.9467 7.934L15.7587 7.97L18.4767 4.316H21.4647L17.2887 9.806V8.294L21.6087 14H18.4227L15.6687 10.148L16.8387 10.31L14.1027 14H11.0427ZM27.353 14.144C26.309 14.144 25.379 13.934 24.563 13.514C23.747 13.082 23.105 12.488 22.637 11.732C22.181 10.976 21.953 10.118 21.953 9.158C21.953 8.186 22.181 7.328 22.637 6.584C23.105 5.828 23.747 5.24 24.563 4.82C25.379 4.388 26.309 4.172 27.353 4.172C28.373 4.172 29.261 4.388 30.017 4.82C30.773 5.24 31.331 5.846 31.691 6.638L29.513 7.808C29.261 7.352 28.943 7.016 28.559 6.8C28.187 6.584 27.779 6.476 27.335 6.476C26.855 6.476 26.423 6.584 26.039 6.8C25.655 7.016 25.349 7.322 25.121 7.718C24.905 8.114 24.797 8.594 24.797 9.158C24.797 9.722 24.905 10.202 25.121 10.598C25.349 10.994 25.655 11.3 26.039 11.516C26.423 11.732 26.855 11.84 27.335 11.84C27.779 11.84 28.187 11.738 28.559 11.534C28.943 11.318 29.261 10.976 29.513 10.508L31.691 11.696C31.331 12.476 30.773 13.082 30.017 13.514C29.261 13.934 28.373 14.144 27.353 14.144ZM37.9907 14.144C36.8867 14.144 35.9147 13.928 35.0747 13.496C34.2467 13.064 33.6047 12.476 33.1487 11.732C32.6927 10.976 32.4647 10.118 32.4647 9.158C32.4647 8.186 32.6867 7.328 33.1307 6.584C33.5867 5.828 34.2047 5.24 34.9847 4.82C35.7647 4.388 36.6467 4.172 37.6307 4.172C38.5787 4.172 39.4307 4.376 40.1867 4.784C40.9547 5.18 41.5607 5.756 42.0047 6.512C42.4487 7.256 42.6707 8.15 42.6707 9.194C42.6707 9.302 42.6647 9.428 42.6527 9.572C42.6407 9.704 42.6287 9.83 42.6167 9.95H34.7507V8.312H41.1407L40.0607 8.798C40.0607 8.294 39.9587 7.856 39.7547 7.484C39.5507 7.112 39.2687 6.824 38.9087 6.62C38.5487 6.404 38.1287 6.296 37.6487 6.296C37.1687 6.296 36.7427 6.404 36.3707 6.62C36.0107 6.824 35.7287 7.118 35.5247 7.502C35.3207 7.874 35.2187 8.318 35.2187 8.834V9.266C35.2187 9.794 35.3327 10.262 35.5607 10.67C35.8007 11.066 36.1307 11.372 36.5507 11.588C36.9827 11.792 37.4867 11.894 38.0627 11.894C38.5787 11.894 39.0287 11.816 39.4127 11.66C39.8087 11.504 40.1687 11.27 40.4927 10.958L41.9867 12.578C41.5427 13.082 40.9847 13.472 40.3127 13.748C39.6407 14.012 38.8667 14.144 37.9907 14.144ZM44.5401 14V0.643999H47.3481V14H44.5401ZM49.9542 14V0.643999H52.7622V14H49.9542ZM60.1743 14.144C59.0703 14.144 58.0983 13.928 57.2583 13.496C56.4303 13.064 55.7883 12.476 55.3323 11.732C54.8763 10.976 54.6483 10.118 54.6483 9.158C54.6483 8.186 54.8703 7.328 55.3143 6.584C55.7703 5.828 56.3883 5.24 57.1683 4.82C57.9483 4.388 58.8303 4.172 59.8143 4.172C60.7623 4.172 61.6143 4.376 62.3703 4.784C63.1383 5.18 63.7443 5.756 64.1883 6.512C64.6323 7.256 64.8543 8.15 64.8543 9.194C64.8543 9.302 64.8483 9.428 64.8363 9.572C64.8243 9.704 64.8123 9.83 64.8003 9.95H56.9343V8.312H63.3243L62.2443 8.798C62.2443 8.294 62.1423 7.856 61.9383 7.484C61.7343 7.112 61.4523 6.824 61.0923 6.62C60.7323 6.404 60.3123 6.296 59.8323 6.296C59.3523 6.296 58.9263 6.404 58.5543 6.62C58.1943 6.824 57.9123 7.118 57.7083 7.502C57.5043 7.874 57.4023 8.318 57.4023 8.834V9.266C57.4023 9.794 57.5163 10.262 57.7443 10.67C57.9843 11.066 58.3143 11.372 58.7343 11.588C59.1663 11.792 59.6703 11.894 60.2463 11.894C60.7623 11.894 61.2123 11.816 61.5963 11.66C61.9923 11.504 62.3523 11.27 62.6763 10.958L64.1703 12.578C63.7263 13.082 63.1683 13.472 62.4963 13.748C61.8243 14.012 61.0503 14.144 60.1743 14.144ZM72.6097 4.172C73.3777 4.172 74.0617 4.328 74.6617 4.64C75.2737 4.94 75.7537 5.408 76.1017 6.044C76.4497 6.668 76.6237 7.472 76.6237 8.456V14H73.8157V8.888C73.8157 8.108 73.6417 7.532 73.2937 7.16C72.9577 6.788 72.4777 6.602 71.8537 6.602C71.4097 6.602 71.0077 6.698 70.6477 6.89C70.2997 7.07 70.0237 7.352 69.8197 7.736C69.6277 8.12 69.5317 8.612 69.5317 9.212V14H66.7237V4.316H69.4057V6.998L68.9017 6.188C69.2497 5.54 69.7477 5.042 70.3957 4.694C71.0437 4.346 71.7817 4.172 72.6097 4.172ZM83.129 14.144C81.989 14.144 81.101 13.856 80.465 13.28C79.829 12.692 79.511 11.822 79.511 10.67V2.174H82.319V10.634C82.319 11.042 82.427 11.36 82.643 11.588C82.859 11.804 83.153 11.912 83.525 11.912C83.969 11.912 84.347 11.792 84.659 11.552L85.415 13.532C85.127 13.736 84.779 13.892 84.371 14C83.975 14.096 83.561 14.144 83.129 14.144ZM78.017 6.692V4.532H84.731V6.692H78.017Z" fill="white"/>
</svg>
