<svg width="88" height="22" viewBox="0 0 88 22" fill="none" xmlns="http://www.w3.org/2000/svg">
<g clip-path="url(#clip0_5588_47497)">
<path d="M23.1264 7.94287H32.0367V9.55826H28.5332V18.6391H26.6066V9.55826H23.1187V7.94287H23.1264ZM31.6561 10.8943H33.303V12.389H33.334C33.3884 12.1776 33.4894 11.9738 33.637 11.7775C33.7846 11.5813 33.9633 11.3925 34.173 11.234C34.3828 11.068 34.6158 10.9396 34.8722 10.834C35.1285 10.7358 35.3927 10.683 35.6568 10.683C35.8588 10.683 36.0064 10.6905 36.084 10.6981C36.1617 10.7056 36.2394 10.7207 36.3249 10.7283V12.3739C36.2006 12.3512 36.0763 12.3361 35.9442 12.321C35.8122 12.3059 35.6879 12.2984 35.5636 12.2984C35.2684 12.2984 34.9887 12.3588 34.7246 12.472C34.4605 12.5852 34.2352 12.7588 34.041 12.9777C33.8468 13.2042 33.6914 13.4759 33.5749 13.8081C33.4583 14.1402 33.404 14.5176 33.404 14.9479V18.6316H31.6483V10.8943H31.6561ZM44.3962 18.6391H42.6716V17.5597H42.6405C42.423 17.9522 42.1045 18.2617 41.6773 18.4957C41.25 18.7297 40.815 18.8505 40.3722 18.8505C39.3235 18.8505 38.5622 18.6014 38.0961 18.0956C37.63 17.5899 37.3969 16.8275 37.3969 15.8084V10.8943H39.1526V15.6424C39.1526 16.3217 39.2846 16.8048 39.5565 17.0841C39.8206 17.3634 40.2013 17.5069 40.6829 17.5069C41.0558 17.5069 41.3588 17.454 41.6074 17.3408C41.8559 17.2276 42.0579 17.0841 42.2055 16.8954C42.3609 16.7143 42.4696 16.4878 42.5396 16.2312C42.6095 15.9745 42.6405 15.6952 42.6405 15.3933V10.9019H44.3962V18.6391ZM47.387 16.1557C47.4414 16.6539 47.6356 17.0011 47.9696 17.2049C48.3114 17.4012 48.7154 17.5069 49.1893 17.5069C49.3524 17.5069 49.5389 17.4918 49.7486 17.4691C49.9583 17.4465 50.1603 17.3936 50.339 17.3257C50.5254 17.2578 50.673 17.1521 50.7973 17.0162C50.9139 16.8803 50.9682 16.7067 50.9605 16.4878C50.9527 16.2689 50.8672 16.0877 50.7119 15.9519C50.5565 15.8084 50.3623 15.7028 50.1215 15.6122C49.8807 15.5291 49.6088 15.4537 49.298 15.3933C48.9873 15.3329 48.6766 15.2649 48.3581 15.197C48.0318 15.1291 47.7133 15.0385 47.4103 14.9404C47.1074 14.8422 46.8355 14.7064 46.5946 14.5327C46.3538 14.3667 46.1596 14.1478 46.0198 13.8836C45.8722 13.6194 45.8023 13.2948 45.8023 12.9023C45.8023 12.4795 45.911 12.1323 46.1208 11.8455C46.3305 11.5586 46.6024 11.3322 46.9209 11.1585C47.2472 10.9849 47.6045 10.8642 48.0007 10.7887C48.3969 10.7207 48.7776 10.683 49.1349 10.683C49.5466 10.683 49.9428 10.7283 50.3157 10.8113C50.6886 10.8943 51.0304 11.0302 51.3333 11.2265C51.6363 11.4152 51.8849 11.6643 52.0869 11.9662C52.2889 12.2682 52.4131 12.6381 52.4675 13.0683H50.6342C50.5487 12.6607 50.3623 12.3814 50.0593 12.2455C49.7564 12.1021 49.4068 12.0342 49.0184 12.0342C48.8941 12.0342 48.7465 12.0417 48.5756 12.0644C48.4047 12.087 48.2493 12.1248 48.0939 12.1776C47.9463 12.2304 47.822 12.3135 47.7133 12.4191C47.6123 12.5248 47.5579 12.6607 47.5579 12.8343C47.5579 13.0457 47.6356 13.2117 47.7832 13.3401C47.9308 13.4684 48.125 13.5741 48.3658 13.6647C48.6066 13.7477 48.8785 13.8232 49.1893 13.8836C49.5 13.944 49.8185 14.0119 50.1448 14.0798C50.4633 14.1478 50.774 14.2383 51.0848 14.3365C51.3955 14.4346 51.6674 14.5705 51.9082 14.7441C52.149 14.9177 52.3432 15.1291 52.4908 15.3857C52.6384 15.6424 52.7161 15.967 52.7161 16.3444C52.7161 16.8048 52.6074 17.1898 52.3898 17.5144C52.1723 17.8314 51.8927 18.0956 51.5509 18.2919C51.209 18.4882 50.8206 18.6391 50.4011 18.7297C49.9816 18.8203 49.5622 18.8656 49.1504 18.8656C48.6455 18.8656 48.1794 18.8128 47.7521 18.6995C47.3249 18.5863 46.952 18.4202 46.6413 18.2013C46.3305 17.9749 46.0819 17.6956 45.9033 17.3634C45.7246 17.0313 45.6314 16.6312 45.6158 16.1708H47.387V16.1557ZM53.1822 10.8943H54.5106V8.5694H56.2663V10.8943H57.851V12.17H56.2663V16.3066C56.2663 16.4878 56.274 16.6388 56.2896 16.7746C56.3051 16.903 56.3439 17.0162 56.3983 17.1068C56.4527 17.1974 56.5381 17.2653 56.6547 17.3106C56.7712 17.3559 56.9188 17.3785 57.1208 17.3785C57.2451 17.3785 57.3694 17.3785 57.4937 17.371C57.6179 17.3634 57.7422 17.3483 57.8665 17.3181V18.6391C57.6723 18.6618 57.4781 18.6769 57.2994 18.6995C57.113 18.7222 56.9266 18.7297 56.7324 18.7297C56.2663 18.7297 55.8934 18.6844 55.6137 18.6014C55.334 18.5184 55.1088 18.39 54.9534 18.224C54.7903 18.0579 54.6893 17.8541 54.6271 17.605C54.5728 17.3559 54.5339 17.069 54.5261 16.752V12.1851H53.1977V10.8943H53.1822ZM59.0939 10.8943H60.7564V11.9436H60.7874C61.036 11.4907 61.3778 11.1736 61.8206 10.9774C62.2634 10.7811 62.7373 10.683 63.2578 10.683C63.887 10.683 64.4308 10.7887 64.8969 11.0076C65.363 11.2189 65.7514 11.5133 66.0622 11.8908C66.3729 12.2682 66.5982 12.706 66.7535 13.2042C66.9089 13.7024 66.9866 14.2383 66.9866 14.8045C66.9866 15.3253 66.9167 15.8311 66.7768 16.3142C66.637 16.8048 66.4273 17.2351 66.1476 17.6125C65.868 17.99 65.5106 18.2844 65.0756 18.5108C64.6405 18.7373 64.1356 18.8505 63.5452 18.8505C63.2889 18.8505 63.0325 18.8278 62.7761 18.7826C62.5198 18.7373 62.2712 18.6618 62.0381 18.5637C61.8051 18.4655 61.5798 18.3372 61.3856 18.1787C61.1836 18.0202 61.0205 17.839 60.8807 17.6352H60.8496V21.5H59.0939V10.8943ZM65.2309 14.7743C65.2309 14.4271 65.1843 14.0874 65.0911 13.7552C64.9979 13.4231 64.8581 13.1363 64.6716 12.8796C64.4852 12.623 64.2521 12.4191 63.9802 12.2682C63.7006 12.1172 63.3821 12.0342 63.0247 12.0342C62.2867 12.0342 61.7274 12.2833 61.3545 12.7815C60.9816 13.2797 60.7952 13.944 60.7952 14.7743C60.7952 15.1668 60.8418 15.5291 60.9428 15.8613C61.0438 16.1934 61.1836 16.4803 61.3856 16.7218C61.5798 16.9634 61.8129 17.1521 62.0848 17.2879C62.3566 17.4314 62.6752 17.4993 63.0325 17.4993C63.4365 17.4993 63.7705 17.4163 64.0502 17.2578C64.3298 17.0992 64.5551 16.8879 64.7338 16.6388C64.9124 16.3821 65.0445 16.0953 65.1222 15.7707C65.1921 15.4461 65.2309 15.114 65.2309 14.7743ZM68.3305 7.94287H70.0862V9.55826H68.3305V7.94287ZM68.3305 10.8943H70.0862V18.6391H68.3305V10.8943ZM71.6554 7.94287H73.411V18.6391H71.6554V7.94287ZM78.7945 18.8505C78.1575 18.8505 77.5904 18.7448 77.0932 18.541C76.5961 18.3372 76.1766 18.0504 75.827 17.6956C75.4852 17.3332 75.2211 16.903 75.0424 16.4048C74.8637 15.9066 74.7705 15.3555 74.7705 14.7592C74.7705 14.1704 74.8637 13.6269 75.0424 13.1287C75.2211 12.6305 75.4852 12.2002 75.827 11.8379C76.1688 11.4756 76.5961 11.1963 77.0932 10.9925C77.5904 10.7887 78.1575 10.683 78.7945 10.683C79.4315 10.683 79.9986 10.7887 80.4958 10.9925C80.9929 11.1963 81.4124 11.4831 81.762 11.8379C82.1038 12.2002 82.368 12.6305 82.5466 13.1287C82.7253 13.6269 82.8185 14.1704 82.8185 14.7592C82.8185 15.3555 82.7253 15.9066 82.5466 16.4048C82.368 16.903 82.1038 17.3332 81.762 17.6956C81.4202 18.0579 80.9929 18.3372 80.4958 18.541C79.9986 18.7448 79.4315 18.8505 78.7945 18.8505ZM78.7945 17.4993C79.1829 17.4993 79.5247 17.4163 79.8122 17.2578C80.0996 17.0992 80.3326 16.8879 80.5191 16.6312C80.7055 16.3746 80.8376 16.0802 80.9308 15.7556C81.0163 15.431 81.0629 15.0989 81.0629 14.7592C81.0629 14.4271 81.0163 14.1025 80.9308 13.7703C80.8454 13.4382 80.7055 13.1514 80.5191 12.8947C80.3326 12.6381 80.0996 12.4342 79.8122 12.2757C79.5247 12.1172 79.1829 12.0342 78.7945 12.0342C78.4061 12.0342 78.0643 12.1172 77.7768 12.2757C77.4894 12.4342 77.2564 12.6456 77.0699 12.8947C76.8835 13.1514 76.7514 13.4382 76.6582 13.7703C76.5727 14.1025 76.5261 14.4271 76.5261 14.7592C76.5261 15.0989 76.5727 15.431 76.6582 15.7556C76.7437 16.0802 76.8835 16.3746 77.0699 16.6312C77.2564 16.8879 77.4894 17.0992 77.7768 17.2578C78.0643 17.4238 78.4061 17.4993 78.7945 17.4993ZM83.3312 10.8943H84.6596V8.5694H86.4153V10.8943H88V12.17H86.4153V16.3066C86.4153 16.4878 86.423 16.6388 86.4386 16.7746C86.4541 16.903 86.493 17.0162 86.5473 17.1068C86.6017 17.1974 86.6872 17.2653 86.8037 17.3106C86.9202 17.3559 87.0678 17.3785 87.2698 17.3785C87.3941 17.3785 87.5184 17.3785 87.6427 17.371C87.767 17.3634 87.8913 17.3483 88.0155 17.3181V18.6391C87.8213 18.6618 87.6271 18.6769 87.4485 18.6995C87.262 18.7222 87.0756 18.7297 86.8814 18.7297C86.4153 18.7297 86.0424 18.6844 85.7627 18.6014C85.4831 18.5184 85.2578 18.39 85.1024 18.224C84.9393 18.0579 84.8383 17.8541 84.7761 17.605C84.7218 17.3559 84.6829 17.069 84.6752 16.752V12.1851H83.3468V10.8943H83.3312Z" fill="white"/>
<path d="M21.0756 7.94285H13.0275L10.5417 0.5L8.04802 7.94285L0 7.9353L6.51766 12.5399L4.02401 19.9752L10.5417 15.3781L17.0516 19.9752L14.5657 12.5399L21.0756 7.94285Z" fill="#00B67A"/>
<path d="M15.125 14.2234L14.5656 12.54L10.5416 15.3783L15.125 14.2234Z" fill="#005128"/>
</g>
<defs>
<clipPath id="clip0_5588_47497">
<rect width="88" height="21" fill="white" transform="translate(0 0.5)"/>
</clipPath>
</defs>
</svg>
