<svg width="88" height="16" viewBox="0 0 88 16" fill="none" xmlns="http://www.w3.org/2000/svg">
<path d="M16 0H0V16H16V0Z" fill="#00B67A"/>
<path d="M8.08302 10.7835L10.5417 10.1669L11.569 13.3002L8.08302 10.7835ZM13.7413 6.73353H9.4134L8.08302 2.7002L6.75263 6.73353H2.42468L5.92746 9.23353L4.59708 13.2669L8.09986 10.7669L10.2554 9.23353L13.7413 6.73353Z" fill="white"/>
<path d="M34 0H18V16H34V0Z" fill="#00B67A"/>
<path d="M26.0833 10.7835L28.5419 10.1669L29.5692 13.3002L26.0833 10.7835ZM31.7416 6.73353H27.4136L26.0833 2.7002L24.7529 6.73353H20.4249L23.9277 9.23353L22.5973 13.2669L26.1001 10.7669L28.2557 9.23353L31.7416 6.73353Z" fill="white"/>
<path d="M52 0H36V16H52V0Z" fill="#00B67A"/>
<path d="M44.0834 10.7835L46.5421 10.1669L47.5693 13.3002L44.0834 10.7835ZM49.7417 6.73353H45.4138L44.0834 2.7002L42.753 6.73353H38.425L41.9278 9.23353L40.5974 13.2669L44.1002 10.7669L46.2558 9.23353L49.7417 6.73353Z" fill="white"/>
<path d="M70 0H54V16H70V0Z" fill="#00B67A"/>
<path d="M62.0834 10.7835L64.5421 10.1669L65.5693 13.3002L62.0834 10.7835ZM67.7417 6.73353H63.4138L62.0834 2.7002L60.753 6.73353H56.425L59.9278 9.23353L58.5974 13.2669L62.1002 10.7669L64.2558 9.23353L67.7417 6.73353Z" fill="white"/>
<path d="M88 0H72V16H88V0Z" fill="#00B67A"/>
<path d="M80.0834 10.7835L82.5421 10.1669L83.5693 13.3002L80.0834 10.7835ZM85.7417 6.73353H81.4138L80.0834 2.7002L78.753 6.73353H74.425L77.9278 9.23353L76.5974 13.2669L80.1002 10.7669L82.2558 9.23353L85.7417 6.73353Z" fill="white"/>
</svg>
